# xmcd
#
# Track frame offsets:
#	150
#	11956
#	28184
#	42054
#	54691
#	66801
#	84576
#	101516
#	113964
#	123757
#	142265
#	159323
#
# Disc length: 2378 seconds
#
# Revision: 0
# Processed by: cddbd v1.5.1PL0 Copyright (c) Steve Scherf et al.
# Submitted via: audiograbber 1.83.01
#
DISCID=a209480c
DTITLE=Os Fagundes - Para Todas as Querências
DYEAR=2004
DGENRE=Gaúcho
TTITLE0=Tambor do Coração
TTITLE1=Colono
TTITLE2=Me Chama que eu Chego
TTITLE3=A Gente Canta
TTITLE4=Baita Baile
TTITLE5=Oh! de Casa
TTITLE6=Última Lembrança
TTITLE7=O Menino da Porteira
TTITLE8=Saco de Gato
TTITLE9=Vou Pra Estrada
TTITLE10=Meu Pago
TTITLE11=Prelúdio Para o Canto Alegretense
EXTD=
EXTT0=
EXTT1=
EXTT2=
EXTT3=
EXTT4=
EXTT5=
EXTT6=
EXTT7=
EXTT8=
EXTT9=
EXTT10=
EXTT11=
PLAYORDER=
